<?xml version="1.0" encoding="utf-8"?>
<!-- Generator: Adobe Illustrator 23.1.0, SVG Export Plug-In . SVG Version: 6.00 Build 0)  -->
<svg version="1.1" id="Layer_1" xmlns:v="https://vecta.io/nano"
	 xmlns="http://www.w3.org/2000/svg" xmlns:xlink="http://www.w3.org/1999/xlink" x="0px" y="0px" viewBox="0 0 116 32"
	 style="enable-background:new 0 0 116 32;" xml:space="preserve">
<style type="text/css">
	.st0{fill:#CE1126;}
	.st1{fill:#333333;}
	.st2{font-family:'Poppins-Bold';}
	.st3{font-size:18px;}
	.st4{font-size:16px;}
</style>
<g>
	<path class="st0" d="M49.4,19.3L49.1,19L49.1,19l-0.1-0.1l-0.1-0.1l-0.1,0l-0.1,0l-0.2-0.2l-0.1-0.2L48,18.3l-0.1-0.2L47.8,18
		l-0.1-0.1l-0.1-0.1l-0.1,0l-0.2-0.1l-0.1-0.1l-0.1-0.1l-0.2-0.3l-0.1,0.1l-0.2-0.1l-0.4-0.4l-0.1-0.1L46,16.6l-0.1,0l-0.1-0.1
		l-0.3-0.3l-0.2-0.3l-0.3-0.3l-0.1-0.1l-0.2-0.2l-0.1,0l-0.1-0.1l-0.1-0.1l-0.2-0.1L44,14.9l-0.1,0l-0.1-0.1l-0.2,0l-0.2-0.1l-0.1,0
		l-0.2,0l-0.3-0.2l-0.2,0.1l-0.1,0l-0.1-0.1L41.9,14l-0.2-0.1l-0.1,0L41.4,14l-0.1-0.1l-0.1,0l-0.1,0.2l-0.3,0l0,0.1l0.1,0.1l0,0.1
		l-0.1,0.1l-0.1,0l-0.1,0l-0.3,0l-0.1,0l-0.1,0l-0.1,0l-0.1-0.1l-0.1,0l-0.1-0.2l-0.1,0l-0.1-0.1l-0.1-0.2l-0.1-0.1l-0.1-0.1
		l-0.2,0.1l0.1,0.1l0.2,0l0,0.2l0,0.1l0,0.1l-0.1,0L39,14.2l-0.1,0l-0.3,0.1l-0.1,0l-0.1-0.1l-0.1,0L38,14L37.8,14l-0.2,0.1
		l-0.3-0.2l-0.2-0.1L37,13.7l-0.1,0l-0.2,0.1l-0.1,0l-0.1-0.1l-0.3-0.1L36,13.5l0-0.1l0-0.1l-0.1,0l-0.1,0l-0.1-0.1L35.7,13l-0.2,0
		l-0.3,0l-0.1,0L34.9,13l0,0.1l0.1,0l0.2,0l0.1,0l0,0.1l-0.1,0.2l-0.1,0L35,13.2l-0.3,0l0-0.1l-0.1-0.1l-0.1,0l-0.1,0l-0.1,0.1
		l-0.1-0.1l-0.1,0l-0.2,0l-0.1-0.1l-0.1,0l-0.3,0.1l-0.1,0l-0.2,0l-0.2-0.1L32.8,13l-0.1-0.2l0.2-0.1l0.1-0.5l0-0.1l0.1-0.1l0-0.1
		l-0.1-0.1l0-0.2l0-0.2l0.1-0.1l0.1,0l0.1,0l0.1,0.1l0.3,0l0.2,0.1l0.2,0l0.1,0l0.1,0l0.1,0l0.1,0l0.2,0.1l0.2,0l0.4,0.1l0.1,0.1
		l0.2,0l0.1,0.1l0.1-0.1l0.4,0l0.4,0l0.1-0.1l0.1,0l0.1,0.1l0.1,0l0.1,0.1l0.1,0l0.1,0.1l0.2,0l0.1,0l0.2,0l0.1,0l0.1-0.1l0.1-0.1
		l0-0.1l0.2-0.4l0.2-0.1l0.1,0l0.3-0.2l0.1-0.1l0.1-0.2l0-0.1l0-0.1l-0.2,0l-0.2,0l-0.1,0.1l-0.1,0l-0.1,0l-0.1,0l-0.1,0.1l-0.1,0
		l-0.2-0.1l-0.1-0.1l0.1-0.1l0.1-0.1l0.1-0.2l0.1-0.2l0.1-0.1l0-0.1l-0.1,0L38,9.5l-0.1,0l-0.1,0.2l-0.1,0l-0.1,0.1l0,0.1l-0.1,0
		l-0.2,0l-0.4,0.3l0,0.1l0,0.2l-0.1,0l0-0.1l-0.1,0l-0.1-0.1l-0.1-0.1l-0.1,0l-0.1-0.1l-0.1,0l-0.1,0l-0.1-0.1l-0.1,0l-0.1,0.1
		l-0.1,0l-0.1-0.1l-0.1,0l-0.1,0L35.1,10l-0.2,0.1l-0.2,0l-0.1,0l-0.3,0l-0.1,0l-0.1,0.1L34,10l-0.1,0l-0.1,0.1l0,0.1l-0.1,0
		l-0.1,0.2l-0.1,0l-0.2,0l-0.1,0l-0.3,0l-0.1,0l-0.1,0l-0.1,0l-0.1,0.1l-0.1,0l-0.1,0l-0.2,0l-0.2,0l-0.2,0l-0.2-0.1l-0.1,0
		l-0.1-0.1l-0.1,0L31,10.3l-0.2-0.3l-0.1-0.2l-0.1-0.1l0-0.1l-0.2-0.2l-0.1-0.2l-0.1-0.2l-0.3-0.5l-0.1-0.2l0-0.3l0-0.1l-0.1,0
		l0-0.1l0.1,0l0.1-0.2l0-0.1l-0.1-0.1l-0.1,0l-0.1-0.1l0-0.1l0-0.2l0.1-0.2l0-0.1l0-0.1l0.1-0.3l0-0.1l0-0.1L29.6,6l-0.1-0.2l0,0h0
		l-0.1,0l-0.1-0.1l-0.1,0l-0.1-0.1l0-0.1l-0.1-0.1l-0.1,0l-0.2-0.1l-0.1,0l-0.2,0.1l-0.2,0l-0.1,0l-0.1,0l-0.1,0l-0.2,0l-0.1,0.1
		l-0.2,0.2l-0.1,0.2l-0.1,0.1L27,6l-0.2,0l-0.2,0l-0.3,0l-0.1,0l-0.1,0L25.9,6l-0.2-0.1l-0.1,0l-0.2-0.1l-0.2,0l-0.1,0l-0.2,0
		l-0.4-0.1l-0.1-0.1L24,5.3l-0.3-0.2L23.6,5l-0.1-0.2l-0.2-0.3l-0.2-0.2l-0.1,0L23,4.2l-0.1,0l-0.1-0.1L22.6,4l-0.1-0.1l-0.1,0
		l-0.1,0l-0.3,0l-0.1,0L21.8,4l-0.1,0.1l-0.1,0.2l-0.1,0l-0.2,0l-0.1-0.1l-0.1,0l-0.2,0.1l-0.1,0l-0.2,0l-0.2-0.1l-0.1,0.1l-0.1,0
		l0-0.1L20,4l-0.1-0.1l-0.1-0.1l-0.2-0.1l-0.2-0.1l-0.1,0l0-0.1l-0.2-0.1L19,3.4l-0.1-0.1l-0.1-0.1l-0.1,0l-0.3,0l-0.1,0.1l-0.1-0.1
		l0-0.1L18.3,3l0-0.1l-0.1-0.1l-0.3-0.3l-0.1,0l-0.1-0.1l0-0.1l-0.1-0.1l-0.1,0l-0.2,0l-0.1,0l-0.1,0l-0.2,0l-0.4-0.1l-0.1,0.1
		l0.1,0.1l0,0.1l-0.1,0l-0.1-0.1l-0.2,0l0-0.1l0.1-0.1L16,2.1L15.7,2l-0.4,0l-0.2,0l-0.2,0.1l-0.1,0.1l-0.1,0.1l0,0.1l0,0.1l0,0.1
		l-0.2,0.2l-0.2,0l-0.1,0L13.9,3l-0.2,0l-0.2-0.1L13.4,3l0.1,0l0.1,0L13.8,3l-0.2,0l-0.1,0.1l-0.1,0.1l-0.1,0l0.1,0l0-0.2l-0.1,0
		L13,2.8l0,0.2l-0.1,0.2l-0.2,0.1l-0.2,0l-0.2,0l-0.1,0l-0.1,0L12,3.1l-0.1,0l-0.2,0l-0.1,0l-0.1,0l-0.3,0l-0.1,0l-0.2,0l-0.2-0.1
		l-0.2-0.1l-0.3-0.1l-0.2,0L10,2.5L9.5,2.3l-0.1,0l-0.2,0L8.9,2.3l-0.2,0l-0.1,0L8.6,2.3l-0.1,0l-0.1,0l-0.1,0L7.9,2.4L7.8,2.5
		l0,0.1l0,0.1L7.6,2.7L7.5,2.5L7.4,2.4l-0.1,0l0,0.1l0.1,0.1l0,0.1l0,0.2L7.2,3L7,3.2l-0.1,0l-0.1,0L6.7,3.3L6.6,3.4l-0.1,0l-0.1,0
		l-0.1,0L6.2,3.6L6.1,3.7L6,3.7L5.8,4l0,0.1l0.1,0.2l0.1-0.2l0.1-0.1l0.1,0l0,0.2l0.1,0l0,0.1l0,0.1l0.1,0.1l0.1,0L6.4,4.6l0,0.1
		l0,0.1l0,0.1l0.1,0l0.1,0.2l-0.1,0L6.3,5L6.3,5L6.1,5L6,5l0,0.1l0.1,0.1l0.1,0.1l0.2,0.1l0,0.1l0,0.1L6.2,5.8l0,0.1l0,0.1l0,0.1
		l0,0.2l0,0.2l0.1,0.2l0.1,0.2l0.1,0l0,0.1l0.1,0.2l0.1,0.1l0,0.1l0.1,0.1l0.1,0l0,0.1L6.8,7.8l0,0.2l0.1,0.1L7,8.4l0,0.1L6.9,8.8
		l0,0.1L6.8,9.1l0,0.1l0,0.3l-0.2,0l-0.1,0L6.3,9.6L6.2,9.7L6.1,9.8L6,9.8L5.6,9.9L5.7,10l0.2,0.2L6,10.4l0.1,0.2l0.1,0.1l0.1,0
		l0.1,0.1l0.1-0.1l0,0.1l0.1,0l0.1,0.1l0,0.1l0.1,0.1l0.1,0.1l0.2,0l0.1,0.1l0.1,0l0.2,0l0.1,0.1l0.1,0.1l0,0.1l0.1,0.1l-0.1,0.1
		l-0.1,0l0.1,0l0,0.1l0,0.1l0,0.1l-0.1,0.1l0,0.1l0.1,0l-0.1,0.1l0,0.1l0,0.1l0,0.1l-0.1,0.1l-0.1,0.1l-0.2,0L6.9,13L6.8,13L6.7,13
		l0.1,0.1l0,0.1l-0.1,0.1l0.1,0.1l0,0.1l-0.1,0l0,0.1l-0.1,0.1l-0.1,0.1l-0.1,0l-0.1,0L6,13.9l0,0.1l-0.1,0l-0.1,0.1l0,0.1l-0.1,0
		l0,0.1l0,0.1l-0.1,0l-0.1-0.1l-0.1,0.1l-0.1,0.1l-0.1,0l-0.1-0.1l-0.1,0l-0.2,0.3l-0.1-0.1l0,0.1l-0.1,0.1l0,0.1l-0.1,0
		c0,0,0,0.1,0,0.1l0.1,0l0.1,0h0l0.1,0l0.1-0.2l0.1,0l0.1,0l0-0.1l0.1,0l0.3,0.1l0.1,0L5.6,15l0.1,0L5.8,15l0,0l0.1,0.2l0.1,0.3
		l0.2,0.1l0.1,0.1L6.3,16l0.1,0l0,0.2l0,0.2l0.1,0.3l0,0.1l0,0.4l-0.1,0.3l0,0.2l0,0.1L6.2,18L6.1,18l-0.2,0.1l-0.1,0l-0.1,0.2
		l-0.1,0l-0.1,0.5l0,0.1l-0.1,0.2l-0.1,0L5,19.2l-0.3-0.1l-0.1,0.1l-0.1,0l0,0c0,0.4,0,0.9,0,1.3c0,0.1,0,0.2,0,0.4l0,0.1l0,0.1
		l-0.1,0.1c0,0.2-0.1,0.3-0.2,0.5l0.1,0l0.3,0.1l0.1,0.1L5,21.9l0.2,0.3l0.2,0.1l0.1,0.1l0,0c0.8-3,3.6-5.2,6.8-5.2
		c3.4,0,6.2,2.3,6.9,5.5l0.2-0.1l0-0.3l0-0.2l0.1,0l0.2-0.1l0-0.1l0.1,0l0.2,0l0.1,0l0.1,0l0.2,0.1l0.3,0.1l0.2,0.2l0.1,0.1l0,0.1
		l0.1,0.4L21,23l0,0.1l0,0.4l-0.1,0l-0.1,0.3l0,0.1l0.1,0.1l0.1,0.1l0.1,0.1l0.2,0.1l0.3,0.3l0.1,0l0.1,0.1l0,0.1l-0.1,0l-0.3,0
		l-0.1-0.1l0-0.1l-0.1,0l-0.1,0.1l-0.1,0.2l0.1,0.1l0.1,0l0.2-0.1l0.2,0l0.1,0l0.1,0.1l0.1,0L22,25l0.5-0.2l0.1-0.1l0.1-0.1l0.1,0
		l0,0v0l0.1,0l0.2-0.1l0.2,0l0.1,0l0.1,0.1l0.2,0l0.2,0l0.2,0l0.2-0.1l0.1-0.1l0.2,0l0.2,0.1l0.3,0.2l0.1,0l0.2-0.1l0.1,0l0.2,0.1
		l0.1,0l0.2,0l0.2,0l0.1,0l0.1-0.1l0.1-0.3l0.1-0.1l0.1-0.1l0.1-0.2l0.1-0.1l0.2-0.1l0.1-0.1l0.1-0.4l0.1-0.2l0.1-0.1l0.2-0.3
		l0.1-0.1L28,22l0.1-0.1l0.1,0.1l0.2-0.1l0.3,0l0.1,0l0.2,0l0.3-0.2l0.2-0.2l0.1-0.1l0.3-0.1l0-0.1l-0.1-0.1l0.1,0l0.1,0.3l0.5,0
		l0.4,0.1l0.3,0l0.1,0l0.3,0l0.5,0.1l0.1,0l0,0l0.1,0.1l0,0.1c1-2.7,3.6-4.7,6.6-4.7c3.4,0,6.2,2.4,6.9,5.6l0.1-0.1l0.1,0l0.2,0.1
		l0.3,0.2l0.1,0.1l0.1,0L47,23l0.4,0.1l0.1-0.1l0.1,0l0.1-0.1l0.1-0.3l0-0.2l0-0.3l0.1-0.3l0.2-0.3l0.2-0.1h0l0.1-0.1l0.1-0.3l0-0.2
		l0.1-0.1l0.2-0.2l0-0.2l0.2-0.2l0.1-0.2l0.1-0.1l0.1-0.4L49.4,19.3z"/>
	<g>
		<path class="st1" d="M18,24.3c0,3.2-2.6,5.7-5.8,5.7c-3.2,0-5.7-2.6-5.7-5.8c0-3.1,2.6-5.7,5.7-5.7C15.5,18.5,18,21.1,18,24.3z
			 M15.5,24.3c0-1.8-1.4-3.2-3.2-3.2c-1.8,0-3.2,1.4-3.2,3.2c0,1.8,1.4,3.3,3.2,3.3C14.1,27.5,15.5,26.1,15.5,24.3z"/>
		<path class="st1" d="M38.9,29.9c-3.2,0-5.7-2.6-5.7-5.7c0-3.2,2.6-5.7,5.8-5.7c3.1,0,5.7,2.6,5.7,5.7C44.6,27.3,42,29.9,38.9,29.9
			z M38.9,20.9c-1.8,0-3.2,1.4-3.3,3.1c0,1.8,1.4,3.3,3.2,3.3c1.8,0,3.3-1.5,3.3-3.2C42.2,22.4,40.7,21,38.9,20.9z"/>
		<path class="st1" d="M4.1,15.8c0,1.3,0,2.6,0,3.8c0,1-0.6,1.7-1.5,1.7c-0.9,0-1.6-0.7-1.6-1.7c0-2.6,0-5.2,0-7.9
			c0-0.7,0.3-1.2,0.9-1.4c0.6-0.2,1.1-0.2,1.6,0.2c0.4,0.3,0.6,0.8,0.6,1.3C4.1,13.2,4.1,14.5,4.1,15.8z"/>
		<path class="st1" d="M12.3,26.8c-1.4,0-2.6-1.2-2.5-2.6c0-1.4,1.2-2.6,2.6-2.5c1.4,0,2.5,1.1,2.5,2.6
			C14.8,25.7,13.7,26.8,12.3,26.8z M11.7,24.2c0,0.4,0.2,0.6,0.5,0.6c0.3,0,0.5-0.1,0.6-0.5c0-0.4-0.1-0.6-0.5-0.6
			C12,23.7,11.8,23.9,11.7,24.2z"/>
		<path class="st1" d="M41.4,24.2c0,1.4-1.1,2.6-2.6,2.5c-1.4,0-2.6-1.2-2.6-2.6c0-1.4,1.2-2.6,2.6-2.6
			C40.3,21.6,41.4,22.8,41.4,24.2z M38.3,24.1c0,0.4,0.2,0.6,0.5,0.6c0.3,0,0.6-0.2,0.6-0.5c0-0.3-0.2-0.6-0.5-0.6
			C38.6,23.6,38.4,23.8,38.3,24.1z"/>
	</g>
</g>
<text transform="matrix(1 0 0 1 54.0503 15.1685)"><tspan x="0" y="0" class="st0 st2 st3">Car</tspan><tspan x="0" y="14" class="st1 st2 st4">facil</tspan></text>
</svg>
