<?xml version="1.0" encoding="utf-8"?>
<!-- Generator: Adobe Illustrator 23.1.0, SVG Export Plug-In . SVG Version: 6.00 Build 0)  -->
<svg version="1.1" id="Layer_1" xmlns:v="https://vecta.io/nano"
	 xmlns="http://www.w3.org/2000/svg" xmlns:xlink="http://www.w3.org/1999/xlink" x="0px" y="0px" viewBox="0 0 145.4 32"
	 style="enable-background:new 0 0 145.4 32;" xml:space="preserve">
<style type="text/css">
	.st0{fill:#CE1126;}
	.st1{fill:#EEEEEE;}
	.st2{enable-background:new    ;}
</style>
<g>
	<path class="st0" d="M49.4,19.3L49.1,19l0,0L49,18.9l-0.1-0.1h-0.1h-0.1l-0.2-0.2l-0.1-0.2L48,18.3l-0.1-0.2L47.8,18l-0.1-0.1
		l-0.1-0.1h-0.1l-0.2-0.1l-0.1-0.1l-0.1-0.1l-0.2-0.3l-0.1,0.1l-0.2-0.1l-0.4-0.4l-0.1-0.1L46,16.6h-0.1l-0.1-0.1l-0.3-0.3l-0.2-0.3
		L45,15.6l-0.1-0.1l-0.2-0.2h-0.1l-0.1-0.1l-0.1-0.1L44.2,15L44,14.9h-0.1l-0.1-0.1h-0.2l-0.2-0.1h-0.1h-0.2l-0.3-0.2l-0.2,0.1h-0.1
		l-0.1-0.1L41.9,14l-0.2-0.1h-0.1L41.4,14l-0.1-0.1h-0.1l-0.1,0.2h-0.3v0.1l0.1,0.1v0.1l-0.1,0.1h-0.1h-0.1h-0.3h-0.1h-0.1H40
		l-0.1-0.1h-0.1l-0.1-0.2h-0.1l-0.1-0.1l-0.1-0.2l-0.1-0.1l-0.1-0.1L39,13.8l0.1,0.1h0.2v0.2v0.1v0.1h-0.1L39,14.2h-0.1l-0.3,0.1
		h-0.1l-0.1-0.1h-0.1L38,14h-0.2l-0.2,0.1l-0.3-0.2l-0.2-0.1L37,13.7h-0.1l-0.2,0.1h-0.1l-0.1-0.1l-0.3-0.1L36,13.5v-0.1v-0.1h-0.1
		h-0.1l-0.1-0.1l0-0.2h-0.2h-0.3h-0.1h-0.2v0.1H35h0.2h0.1v0.1l-0.1,0.2h-0.1L35,13.2h-0.3v-0.1L34.6,13h-0.1h-0.1l-0.1,0.1L34.2,13
		h-0.1h-0.2l-0.1-0.1h-0.1L33.4,13h-0.1h-0.2l-0.2-0.1L32.8,13l-0.1-0.2l0.2-0.1l0.1-0.5v-0.1l0.1-0.1v-0.1L33,11.8v-0.2v-0.2
		l0.1-0.1h0.1h0.1l0.1,0.1h0.3l0.2,0.1h0.2h0.1h0.1h0.1h0.1l0.2,0.1h0.2l0.4,0.1l0.1,0.1h0.2l0.1,0.1l0.1-0.1h0.4h0.4l0.1-0.1h0.1
		l0.1,0.1H37l0.1,0.1h0.1l0.1,0.1h0.2h0.1h0.2h0.1l0.1-0.1l0.1-0.1v-0.1l0.2-0.4l0.2-0.1h0.1l0.3-0.2l0.1-0.1l0.1-0.2v-0.1v-0.1
		h-0.2h-0.2l-0.1,0.1h-0.1h-0.1h-0.1l-0.1,0.1h-0.1l-0.2-0.1l-0.1-0.1l0.1-0.1l0.1-0.1l0.1-0.2l0.1-0.2l0.1-0.1V9.7h-0.1L38,9.5
		h-0.1l-0.1,0.2h-0.1l-0.1,0.1v0.1h-0.1h-0.2l-0.4,0.3v0.1v0.2h-0.1v-0.1h-0.1l-0.1-0.1l-0.1-0.1h-0.1l-0.1-0.1h-0.1h-0.1L36,10
		h-0.1l-0.1,0.1h-0.1L35.6,10h-0.1h-0.1l-0.3,0l-0.2,0.1h-0.2h-0.1h-0.3h-0.1l-0.1,0.1L34,10h-0.1l-0.1,0.1v0.1h-0.1l-0.1,0.2h-0.1
		h-0.2h-0.1h-0.3h-0.1h-0.1h-0.1l-0.1,0.1h-0.1h-0.1h-0.2h-0.2h-0.2l-0.2-0.1h-0.1l-0.1-0.1h-0.1H31L30.8,10l-0.1-0.2l-0.1-0.1V9.6
		l-0.2-0.2l-0.1-0.2L30.2,9l-0.3-0.5l-0.1-0.2V8V7.9h-0.1V7.8h0.1l0.1-0.2V7.5l-0.1-0.1h-0.1l-0.1-0.1V7.2V7l0.1-0.2V6.7V6.6
		l0.1-0.3V6.2V6.1L29.6,6l-0.1-0.2l0,0l0,0h-0.1l-0.1-0.1h-0.1l-0.1-0.1V5.5L29,5.4h-0.1l-0.2-0.1h-0.1l-0.2,0.1h-0.2h-0.1H28h-0.1
		h-0.2l-0.1,0.1l-0.2,0.2l-0.1,0.2L27.2,6H27h-0.2h-0.2h-0.3h-0.1h-0.1h-0.2l-0.2-0.1h-0.1l-0.2-0.1h-0.2h-0.1h-0.2l-0.4-0.1
		l-0.1-0.1L24,5.3l-0.3-0.2L23.6,5l-0.1-0.2l-0.2-0.3l-0.2-0.2H23l0-0.1h-0.1l-0.1-0.1L22.6,4l-0.1-0.1h-0.1h-0.1H22h-0.1L21.8,4
		l-0.1,0.1l-0.1,0.2h-0.1h-0.2l-0.1-0.1h-0.1l-0.2,0.1h-0.1h-0.2l-0.2-0.1l-0.1,0.1h-0.1V4.2L20,4l-0.1-0.1l-0.1-0.1l-0.2-0.1
		l-0.2-0.1h-0.1V3.5l-0.2-0.1l-0.1,0l-0.1-0.1l-0.1-0.1h-0.1h-0.3l-0.1,0.1l-0.1-0.1V3.1L18.3,3V2.9l-0.1-0.1l-0.3-0.3h-0.1
		l-0.1-0.1V2.3l-0.1-0.1h-0.1h-0.2h-0.1h-0.1h-0.2l-0.4-0.1l-0.1,0.1l0.1,0.1v0.1h-0.1l-0.1-0.1h-0.2V2.2l0.1-0.1l-0.2,0L15.7,2
		h-0.4h-0.2l-0.2,0.1l-0.1,0.1l-0.1,0.1v0.1v0.1v0.1l-0.2,0.2h-0.2h-0.1L13.9,3h-0.2l-0.2-0.1L13.4,3h0.1h0.1h0.2h-0.2l-0.1,0.1
		l-0.1,0.1h-0.1h0.1V3h-0.1L13,2.8V3l-0.1,0.2l-0.2,0.1h-0.2h-0.2h-0.1h-0.1L12,3.1h-0.1h-0.2h-0.1h-0.1h-0.3h-0.1h-0.2L10.7,3
		l-0.2-0.1l-0.3-0.1H10l0-0.3L9.5,2.3H9.4H9.2H8.9H8.7H8.6h0H8.5H8.4H8.3L7.9,2.4L7.8,2.5v0.1v0.1l-0.2,0L7.5,2.5L7.4,2.4H7.3v0.1
		l0.1,0.1v0.1v0.2L7.2,3L7,3.2H6.9H6.8L6.7,3.3L6.6,3.4H6.5H6.4H6.3L6.2,3.6L6.1,3.7H6L5.8,4v0.1l0.1,0.2L6,4.1L6.1,4h0.1v0.2h0.1
		v0.1v0.1l0.1,0.1h0.1L6.4,4.6v0.1v0.1v0.1h0.1l0.1,0.2H6.5L6.3,5l0,0H6.1H6v0.1l0.1,0.1l0.1,0.1l0.2,0.1v0.1v0.1L6.2,5.8v0.1V6v0.1
		v0.2v0.2l0.1,0.2l0.1,0.2h0.1V7l0.1,0.2l0.1,0.1v0.1l0.1,0.1h0.1v0.1L6.8,7.8V8l0.1,0.1L7,8.4v0.1L6.9,8.8v0.1L6.8,9.1v0.1v0.3H6.6
		H6.5L6.3,9.6L6.2,9.7L6.1,9.8H6L5.6,9.9L5.7,10l0.2,0.2L6,10.4l0.1,0.2l0.1,0.1h0.1l0.1,0.1l0.1-0.1v0.1h0.1l0.1,0.1V11l0.1,0.1
		l0.1,0.1h0.2l0.1,0.1h0.1h0.2l0.1,0.1l0.1,0.1v0.1l0.1,0.1l-0.1,0.1H7.6h0.1v0.1V12v0.1l-0.1,0.1v0.1h0.1l-0.1,0.1v0.1v0.1v0.1
		l-0.1,0.1l-0.1,0.1H7.2L6.9,13H6.8H6.7l0.1,0.1v0.1l-0.1,0.1l0.1,0.1v0.1H6.7v0.1l-0.1,0.1l-0.1,0.1H6.4H6.3L6,13.9V14H5.9
		l-0.1,0.1v0.1H5.7v0.1v0.1H5.6l-0.1-0.1l-0.1,0.1l-0.1,0.1H5.2l-0.1-0.1H5l-0.2,0.3l-0.1-0.1v0.1l-0.1,0.1v0.1H4.5V15h0.1h0.1l0,0
		h0.1l0.1-0.2H5h0.1v-0.1h0.1l0.3,0.1h0.1l0,0.2h0.1h0.1l0,0l0.1,0.2L6,15.5l0.2,0.1l0.1,0.1l0,0.3h0.1v0.2v0.2l0.1,0.3v0.1v0.4
		l-0.1,0.3v0.2v0.1L6.2,18H6.1l-0.2,0.1H5.8l-0.1,0.2H5.6l-0.1,0.5v0.1l-0.1,0.2H5.3L5,19.2l-0.3-0.1l-0.1,0.1H4.5l0,0
		c0,0.4,0,0.9,0,1.3c0,0.1,0,0.2,0,0.4V21v0.1l-0.1,0.1c0,0.2-0.1,0.3-0.2,0.5h0.1l0.3,0.1l0.1,0.1l0.3,0l0.2,0.3l0.2,0.1l0.1,0.1
		l0,0c0.8-3,3.6-5.2,6.8-5.2c3.4,0,6.2,2.3,6.9,5.5l0.2-0.1v-0.3v-0.2h0.1l0.2-0.1v-0.1h0.1H20h0.1h0.1l0.2,0.1l0.3,0.1l0.2,0.2
		l0.1,0.1v0.1l0.1,0.4L21,23v0.1v0.4h-0.1l-0.1,0.3v0.1l0.1,0.1l0.1,0.1l0.1,0.1l0.2,0.1l0.3,0.3h0.1l0.1,0.1v0.1h-0.1h-0.3
		l-0.1-0.1v-0.1h-0.1l-0.1,0.1L21,24.9l0.1,0.1h0.1l0.2-0.1h0.2h0.1l0.1,0.1h0.1l0.1,0l0.5-0.2l0.1-0.1l0.1-0.1h0.1l0,0l0,0h0.1
		l0.2-0.1h0.2h0.1l0.1,0.1h0.2h0.2h0.2l0.2-0.1l0.1-0.1h0.2l0.2,0.1l0.3,0.2h0.1l0.2-0.1h0.1l0.2,0.1h0.1H26h0.2h0.1l0.1-0.1
		l0.1-0.3l0.1-0.1l0.1-0.1l0.1-0.2l0.1-0.1l0.2-0.1l0.1-0.1l0.1-0.4l0.1-0.2l0.1-0.1l0.2-0.3l0.1-0.1L28,22l0.1-0.1l0.1,0.1l0.2-0.1
		h0.3h0.1H29l0.3-0.2l0.2-0.2l0.1-0.1l0.3-0.1v-0.1l-0.1-0.1h0.1l0.1,0.3h0.5l0.4,0.1h0.3h0.1h0.3l0.5,0.1h0.1l0,0l0.1,0.1v0.1
		c1-2.7,3.6-4.7,6.6-4.7c3.4,0,6.2,2.4,6.9,5.6l0.1-0.1H46l0.2,0.1l0.3,0.2l0.1,0.1h0.1H47l0.4,0.1l0.1-0.1h0.1l0.1-0.1l0.1-0.3
		v-0.2v-0.3l0.1-0.3l0.2-0.3l0.2-0.1l0,0l0.1-0.1l0.1-0.3v-0.2l0.1-0.1l0.2-0.2v-0.2l0.2-0.2l0.1-0.2l0.1-0.1l0.1-0.4L49.4,19.3z"/>
	<g>
		<path class="st1" d="M18,24.3c0,3.2-2.6,5.7-5.8,5.7s-5.7-2.6-5.7-5.8c0-3.1,2.6-5.7,5.7-5.7C15.5,18.5,18,21.1,18,24.3z
			 M15.5,24.3c0-1.8-1.4-3.2-3.2-3.2s-3.2,1.4-3.2,3.2c0,1.8,1.4,3.3,3.2,3.3C14.1,27.5,15.5,26.1,15.5,24.3z"/>
		<path class="st1" d="M38.9,29.9c-3.2,0-5.7-2.6-5.7-5.7c0-3.2,2.6-5.7,5.8-5.7c3.1,0,5.7,2.6,5.7,5.7C44.6,27.3,42,29.9,38.9,29.9
			z M38.9,20.9c-1.8,0-3.2,1.4-3.3,3.1c0,1.8,1.4,3.3,3.2,3.3s3.3-1.5,3.3-3.2C42.2,22.4,40.7,21,38.9,20.9z"/>
		<path class="st1" d="M4.1,15.8c0,1.3,0,2.6,0,3.8c0,1-0.6,1.7-1.5,1.7S1,20.6,1,19.6c0-2.6,0-5.2,0-7.9c0-0.7,0.3-1.2,0.9-1.4
			s1.1-0.2,1.6,0.2c0.4,0.3,0.6,0.8,0.6,1.3C4.1,13.2,4.1,14.5,4.1,15.8z"/>
		<path class="st1" d="M12.3,26.8c-1.4,0-2.6-1.2-2.5-2.6c0-1.4,1.2-2.6,2.6-2.5c1.4,0,2.5,1.1,2.5,2.6
			C14.8,25.7,13.7,26.8,12.3,26.8z M11.7,24.2c0,0.4,0.2,0.6,0.5,0.6s0.5-0.1,0.6-0.5c0-0.4-0.1-0.6-0.5-0.6
			C12,23.7,11.8,23.9,11.7,24.2z"/>
		<path class="st1" d="M41.4,24.2c0,1.4-1.1,2.6-2.6,2.5c-1.4,0-2.6-1.2-2.6-2.6s1.2-2.6,2.6-2.6C40.3,21.6,41.4,22.8,41.4,24.2z
			 M38.3,24.1c0,0.4,0.2,0.6,0.5,0.6s0.6-0.2,0.6-0.5s-0.2-0.6-0.5-0.6S38.4,23.8,38.3,24.1z"/>
	</g>
</g>
<g class="st2">
	<path class="st0" d="M54.8,11.9c0.7-1.2,1.6-2.1,2.8-2.8c1.2-0.7,2.5-1,4-1c1.8,0,3.4,0.5,4.7,1.5c1.3,1,2.2,2.3,2.6,4h-4.2
		c-0.3-0.6-0.7-1.1-1.3-1.5c-0.6-0.3-1.2-0.5-1.9-0.5c-1.2,0-2.1,0.4-2.8,1.2c-0.7,0.8-1.1,1.9-1.1,3.3c0,1.4,0.4,2.4,1.1,3.3
		c0.7,0.8,1.7,1.2,2.8,1.2c0.7,0,1.4-0.2,1.9-0.5c0.6-0.3,1-0.8,1.3-1.5H69c-0.4,1.7-1.3,3-2.6,4c-1.3,1-2.9,1.4-4.7,1.4
		c-1.5,0-2.9-0.3-4-1c-1.2-0.7-2.1-1.6-2.8-2.8c-0.7-1.2-1-2.6-1-4.1C53.8,14.5,54.1,13.1,54.8,11.9z"/>
	<path class="st0" d="M71.3,14.3c0.5-1,1.1-1.7,2-2.2c0.8-0.5,1.7-0.8,2.8-0.8c0.9,0,1.6,0.2,2.3,0.5c0.7,0.4,1.2,0.8,1.5,1.4v-1.7
		h3.8v12.3h-3.8V22c-0.4,0.6-0.9,1-1.5,1.4C77.6,23.8,76.8,24,76,24c-1,0-1.9-0.3-2.7-0.8c-0.8-0.5-1.5-1.3-2-2.2
		c-0.5-1-0.7-2.1-0.7-3.4C70.5,16.3,70.8,15.2,71.3,14.3z M79,15.4c-0.5-0.5-1.2-0.8-1.9-0.8c-0.8,0-1.4,0.3-1.9,0.8
		s-0.8,1.3-0.8,2.2s0.3,1.7,0.8,2.2s1.2,0.8,1.9,0.8c0.8,0,1.4-0.3,1.9-0.8c0.5-0.5,0.8-1.3,0.8-2.2C79.8,16.7,79.5,15.9,79,15.4z"
		/>
	<path class="st0" d="M91.8,11.9c0.7-0.4,1.4-0.6,2.2-0.6v4h-1c-0.9,0-1.7,0.2-2.1,0.6c-0.5,0.4-0.7,1.1-0.7,2.1v5.7h-3.8V11.4h3.8
		v2.1C90.5,12.8,91.1,12.3,91.8,11.9z"/>
</g>
<g class="st2">
	<path class="st1" d="M105.7,10v2.7H100v2.9h4.2v2.6H100v5.6h-3.4V10H105.7z"/>
	<path class="st1" d="M107.4,15.3c0.4-0.9,1-1.5,1.7-2s1.6-0.7,2.5-0.7c0.8,0,1.5,0.2,2,0.5c0.6,0.3,1,0.7,1.3,1.2v-1.6h3.4v11H115
		v-1.6c-0.3,0.5-0.8,0.9-1.4,1.2c-0.6,0.3-1.3,0.5-2,0.5c-0.9,0-1.7-0.2-2.4-0.7c-0.7-0.5-1.3-1.1-1.7-2c-0.4-0.9-0.6-1.9-0.6-3
		S107,16.2,107.4,15.3z M114.3,16.3c-0.5-0.5-1-0.7-1.7-0.7c-0.7,0-1.2,0.2-1.7,0.7c-0.5,0.5-0.7,1.1-0.7,2c0,0.8,0.2,1.5,0.7,2
		c0.5,0.5,1,0.7,1.7,0.7c0.7,0,1.2-0.2,1.7-0.7c0.5-0.5,0.7-1.1,0.7-2C115,17.5,114.8,16.8,114.3,16.3z"/>
	<path class="st1" d="M120.8,15.3c0.5-0.9,1.1-1.5,1.9-2s1.8-0.7,2.9-0.7c1.4,0,2.5,0.4,3.5,1.1c0.9,0.7,1.5,1.7,1.8,3h-3.6
		c-0.3-0.8-0.9-1.3-1.8-1.3c-0.6,0-1.1,0.2-1.5,0.7c-0.4,0.5-0.6,1.2-0.6,2.1c0,0.9,0.2,1.6,0.6,2.1s0.9,0.7,1.5,0.7
		c0.9,0,1.4-0.4,1.8-1.3h3.6c-0.3,1.3-0.9,2.3-1.8,3c-0.9,0.7-2.1,1.1-3.4,1.1c-1.1,0-2-0.2-2.9-0.7s-1.5-1.1-1.9-2s-0.7-1.8-0.7-3
		C120.1,17.2,120.3,16.2,120.8,15.3z"/>
	<path class="st1" d="M132.9,11.2c-0.4-0.3-0.6-0.8-0.6-1.3c0-0.5,0.2-1,0.6-1.3c0.4-0.3,0.9-0.5,1.4-0.5c0.6,0,1.1,0.2,1.4,0.5
		c0.4,0.3,0.6,0.8,0.6,1.3c0,0.5-0.2,0.9-0.6,1.3c-0.4,0.3-0.8,0.5-1.4,0.5C133.8,11.7,133.3,11.5,132.9,11.2z M136.1,12.8v11h-3.4
		v-11H136.1z"/>
	<path class="st1" d="M141.9,9.2v14.6h-3.4V9.2H141.9z"/>
</g>
</svg>
